<?xml version="1.0" encoding="utf-8"?>
<!-- Generator: Adobe Illustrator 21.1.0, SVG Export Plug-In . SVG Version: 6.00 Build 0)  -->
<svg version="1.1" id="Layer_1" xmlns="http://www.w3.org/2000/svg" xmlns:xlink="http://www.w3.org/1999/xlink" x="0px" y="0px"
	 viewBox="0 0 500 500" style="enable-background:new 0 0 500 500;" xml:space="preserve">
<style type="text/css">
	.st0{filter:url(#Adobe_OpacityMaskFilter);}
	.st1{fill:#FFFFFF;}
	.st2{mask:url(#mask-2);fill:#F7CA17;}
</style>
<g id="Artboard">
	<g id="Page-1-Copy" transform="translate(0.000000, 218.000000)">
		<defs>
			<filter id="Adobe_OpacityMaskFilter" filterUnits="userSpaceOnUse" x="8" y="-7.3" width="486" height="282.7">
				<feColorMatrix  type="matrix" values="1 0 0 0 0  0 1 0 0 0  0 0 1 0 0  0 0 0 1 0"/>
			</filter>
		</defs>
		<mask maskUnits="userSpaceOnUse" x="8" y="-7.3" width="486" height="282.7" id="mask-2">
			<g class="st0">
				<polygon id="path-1" class="st1" points="8,-7.3 494,-7.3 494,275.3 8,275.3 				"/>
			</g>
		</mask>
		<path id="Fill-1" class="st2" d="M487.7,239.9c-2.8-1.2-6-1.4-9.1-1.4c-5.3,0.1-10.6,0.2-15.9,0c-14.6-0.5-29.7-0.8-44.3-2.5
			c-12.5-1.5-25-6.3-37.6-6.7c-16.1-0.5-34-3.1-49.5-7.3c-4.4-1.2-9.1-1.7-13.2-4.1c1.1-1.9,62.6,0,78.6-3.6c9.8-2.3,20-0.6,30-1.4
			c13.9-1.2,27.8-2,41.7-3.5c3.4-0.4,7.1,0.4,11.2-1.6c-1.7-10.1-5.6-19.8-8.5-29.9c-13.9,0-27.8,0.9-41.6,2.4
			c-6.7,0.7-13.4,1.6-20.1,2.3c-26.5,2.7-55.3,3.7-82.2,4c-3.8,0-7.6,0.2-11.5,0.1c12.3-4.7,22.9-12.9,35.1-17.7
			c12.3-4.8,23.7-11.6,36.4-15.7c11-3.6,21.3-9.5,32.1-13.9c5.5-2.2,10.1-6,15.6-8c4.1-1.5,7.3-4.2,11-5.8c-1.4-2.3-2.9-4.5-4.2-6.9
			c-0.4-0.7-0.3-1.3,0.1-1.9c-3.5-6.7-6.9-13.4-10.2-20.2c-7.2,4.7-13.4,10.8-20.9,15.3c-8.8,5.3-16.9,11.7-25.8,16.9
			c-21.1,12.3-44.7,20.5-66.7,31c-4.8,2.3-9.3,5-14.3,7c-0.4-1.2,0.2-2,0.7-2.6c4.4-4.6,8.5-9.5,12.2-14.6
			c5.2-7.1,10.4-14.3,15.4-21.6c4.7-6.9,9.5-13.8,14.2-20.8c7.6-11.1,16.6-22.3,22.4-34.5c3-6.3,7.9-11.5,11.8-17.3
			c2.7-3.9,4.7-8.5,9-11.3c0.6-0.4,0.8-1.2,1.1-2c-15.9-9.2-30.9-19.7-45.2-31.1c-0.9,0-1.9,0.1-2.8,0.2c-5.1,0.7-16.7,43-18.8,48.7
			c-6.4,17.6-12.3,35.5-21.5,52c-1.5,2.6-3.4,5-4.5,7.7c-3.9,9.4-7.5,19-14,28.4c0.6-4.5,1.2-7.9,1.6-11.3
			c0.4-4.4,5.9-29.4,6.5-37.8c1.1-15.2,3.5-30.8,4.8-46.1c0.3-3.4,0.5-6.7,1.1-10c0.2-1.3,0.5-2.6,0.5-3.9c0.1-1.4-0.1-2.9-0.2-4.3
			c-0.5-8.4,2.1-16.8,2-25.1c0-4.4,2.6-8.7,0.8-13.3c-1.1-0.1-2.3-0.2-3.4-0.4c-1.2,0.1-2.5,0.2-3.7-0.2c-0.2-0.1-0.4-0.1-0.6-0.2
			c-16.3-1.6-32.7-2.6-49.1-3c-0.7,1.3-1,2.7-0.9,4.4c0.3,8.8,0.5,17.7,0.7,26.5c0.1,3-0.6,5.9-0.8,8.8c-0.8,12.1,1.7,25,1.8,37.3
			c0,24.4-0.8,48.7-1,73.1c-0.1,7-1.2,32.3-1.6,31.7c-6.5-9-8.6-27.5-10.5-38.3c-2.2-12.6-4.7-25-7.3-37.5
			c-1.7-7.9-4.2-15.6-5.2-23.6c-0.6-4.3-2.6-8.6-3.7-12.9c-3.4-13-7-26-11.8-38.5c-2-5.2-4.3-10.4-6.6-15.5c-1.1-2.6-1.5-5.5-4-7.8
			c-10.5,0.1-19.7,4.8-29.4,8.7c-0.4,1.4,0.4,6.7,0.6,8.3c1.1,8.1,4.5,15.6,7.1,23.2c3.2,9.2,5.8,18.6,10,27.4
			c2.9,6,3.9,12.6,6,18.8c2.8,8.4,6.5,16.5,8,25.2c1.1,6.5,3.6,12.5,5.7,18.6c1.8,5.1,1.5,10.6,3.7,15.4c0.2,0.3-2.1-0.1-2.7-0.8
			c-2.4-3.5-4.6-7.2-7.6-10.2c-5.2-5.1-8.4-11.5-11.8-17.7c-1.4-2.6-20-35.6-26.5-44.8c-5.1-7.3-10.1-14.8-15.6-21.9
			c-4.7-6.1-8.7-12.7-13.1-19.1c-1.6-2.4-32.4,20.2-35.5,22.7c3,4.4,5.4,8.9,8.6,12.7c25.4,30,46.5,62.4,69.1,94.5
			c7.1,10,14.1,20,21.2,30c-11.7-4-22.5-10.1-33.2-16.2c-29.6-16.8-58.9-36.4-90.5-49.2c-6.4-2.6-12.2-6.2-18.2-9.6
			c-2.4-1.4-5-2.6-7.4-3.8c-10.4,19-20.9,37.6-22.6,59.7c40.9,8.7,81.5,27.5,119.2,44.5c7.3,3.3,15,4.5,22.2,7.4
			c5.6,2.2,11.8,2,17.5,4.2c-3.3,0.2-34.9,0.2-40.9,0.6c-20.3,1.3-40.5,1-60.9,0c-18.6-0.9-40.6,1.3-58.7-2.9
			c-2.7-0.6-5.6-0.6-8.7,0.6c-0.6,16-1.9,32,1.2,48.1c2-0.2,3.4,0.9,5.2,0.7c18.6-2.9,38.3-1.2,57.2-1.5c20.3-0.3,40.6-0.5,60.8-0.8
			l45.4-0.6c51-0.6,102.1-2.3,153.2-1.9c24.4,0.2,48.9-0.5,73.4-0.6c18.3-0.1,37.2,0.9,55.5-0.7c5.3-0.5,10.7,1.3,16-0.8
			c1.3-0.5,3.1-0.5,4.5,0c4.3,1.4,8.2-0.7,12.9-0.2C491.4,258.6,490.7,249,487.7,239.9"/>
	</g>
</g>
</svg>
