<?xml version="1.0" encoding="utf-8"?>
<!-- Generator: Adobe Illustrator 21.1.0, SVG Export Plug-In . SVG Version: 6.00 Build 0)  -->
<svg version="1.1" id="Layer_1" xmlns="http://www.w3.org/2000/svg" xmlns:xlink="http://www.w3.org/1999/xlink" x="0px" y="0px"
	 viewBox="0 0 500 500" style="enable-background:new 0 0 500 500;" xml:space="preserve">
<style type="text/css">
	.st0{fill:#65C6BC;}
</style>
<g id="Artboard-Copy">
	<path id="Page-1-Copy" class="st0" d="M10.9,257.3c5.5-19.1,15.6-33.4,32.8-40.8c9.9-4.3,19.5-4.4,29.6-0.6
		c11.3,4.2,21.4,3.4,33.2,5.1c19,2.9,38,5.8,57,8.7c1.7,0.2,3.4,0.4,5.7,0.7c-1.7-3.4-4.2-5-6.4-6.7c-7.8-6.1-14.2-13.6-19.3-22.5
		c-15.1-26.4-31-52.1-47.1-77.7c-9.9-15.8-8.9-33.1-1.7-49.7c14.8-34.4,40.1-58.7,73-66.8c12.3-3.1,24.9,0.9,37.4,0.4
		C219,6.8,232.9,7.2,246.9,7c8-0.2,13.9,3.7,18.6,10.7c8.9,13.4,10.9,29.2,11.9,45.1c1,16.1,0.7,32.2,1.3,48.3
		c0.9,24.4-3.5,47.4-12.1,69.6c-1,2.7-1.9,5.4-3.1,9c3.3-1.9,4-4.8,5.3-7.1c6.8-11.8,12.5-25.2,23.8-32c27.7-16.7,53-37.8,81.1-53.6
		c15.2-8.5,31.6-12.3,48.5-13.7c9-0.8,17.9-1.3,27-0.2c13.6,1.6,21.8,9.9,26.4,23.8c5.1,15.6,7.7,31.8,9.9,48
		c2.5,18.7,6.3,37.2,8.8,55.9c2.8,20.7,0,39.5-16.6,53.2c-8.7,7.2-16.1,16.5-27.9,17.1c-5.4,0.3-10.8,1.2-16.2,2
		c-9.5,1.3-18.5,4.7-27.6,7.7c-15.5,5.2-31,5.5-46.7,1.3c-15.1-4.1-30.6-3.9-46.1-4.1c-3.6,0-3.7,2.8-3.7,5.4
		c-0.1,9.9-0.5,19.7,0.1,29.6c1.2,20.1,0.7,40.2,0.7,60.3c0,14.8,0.9,29.6-0.9,44.3c-2.3,19-8.3,35.1-22.9,47.4
		c-13.6,11.5-28.5,16.3-44.8,17.8c-12.3,1.1-24.7,3.1-37-0.9c-3.6-1.2-7-2.9-10.6-4.1c-5.8-1.9-7.7-6.8-8.4-12.8
		c-2-16.6,1.9-32.3,5.9-48c11.1-42.9,18.9-86.7,27.4-130.3c0.7-3.5-0.3-4.2-2.9-3.7c-5.3,0.8-10.1,3.1-14.8,5.8
		c-11.8,6.7-22.2,16.7-35,20.8c-32.6,10.3-63.9,25.6-97.6,31.6c-16,2.8-29-3.4-40.4-15.1c-6.8-7-13.2-14.7-17.7-23.9
		c-4.7-9.8-5.3-21.6-4-33C7.2,271.5,9,264,10.9,257.3z"/>
</g>
</svg>
