<?xml version="1.0" encoding="utf-8"?>
<!-- Generator: Adobe Illustrator 21.1.0, SVG Export Plug-In . SVG Version: 6.00 Build 0)  -->
<svg version="1.1" id="Layer_1" xmlns="http://www.w3.org/2000/svg" xmlns:xlink="http://www.w3.org/1999/xlink" x="0px" y="0px"
	 viewBox="0 0 500 500" style="enable-background:new 0 0 500 500;" xml:space="preserve">
<style type="text/css">
	.st0{fill:#FFFFFF;}
	.st1{fill:#82CFE1;}
</style>
<g>
	<polygon id="path-1" class="st0" points="16.6,283.7 483.4,283.7 483.4,493.7 16.6,493.7 	"/>
</g>
<g id="Page-1-Copy" transform="translate(0.000000, 286.000000)">
	<path id="Fill-1" class="st1" d="M319.5-2.1c7.8,0.8,15.1,3.9,22.8,5.7c7.5,1.7,14.9,3.4,22.1,6.1c14.6,5.3,28.5,13.5,40.3,25.1
		c14.3,14,28.9,27.7,40,45.4c6.1,9.6,11.5,20.3,15,31.6c8.5,27.7,15.8,55.9,23.5,83.9c0.1,0.4,0.1,0.8,0.1,1.9
		c-3.9,0.4-7.8,1.2-11.7,1.2c-15,0.3-29.7,3-44,8.4c-2.6,1-3.7,0.3-4.8-2.8c-13.5-37.9-32.3-71.3-59.6-97c-5.2-4.9-11.3-8.4-17-12.5
		c-23.7-16.6-49.5-25.6-76.8-28.2c-16.2-1.6-32.4-3.1-48.6-4.1c-12.8-0.8-24.6,4.2-36,10.6c-15.6,8.8-31.2,17.2-44.4,31
		c-18.9,19.8-33.8,43-43.4,70.8c-2,5.9-4.3,11.7-6,17.7c-1.1,3.8-3.2,5.2-6.2,5.4c-7.7,0.3-15.8,0.7-23.6,1.4
		c-8,0.7-16.1,2.6-24.1,1.9c-6.8-0.6-13.6-1.3-20.4-1.9c2.8-6,5.2-11.5,7.9-16.6c11.1-21.1,25.2-39,41.4-54.4
		c15.9-15.1,29.4-32.8,40.9-52.8c11.3-19.5,26.5-33.9,43.2-46.5c16-12.2,33.6-17.4,52.1-19.8c17.7-2.3,35.5-4.6,53.2-7
		c12.2-1.6,24.5-2.8,36.8-3.5c8.7-0.5,17.4-1.7,26.1-1.1C318.7-2.1,319.1-2.1,319.5-2.1"/>
</g>
</svg>
